<?xml version="1.0" encoding="UTF-8"?>
<svg xmlns="http://www.w3.org/2000/svg" xmlns:xlink="http://www.w3.org/1999/xlink" width="1920" height="1080" viewBox="0 0 1920 1080">
<defs>
<g>
<g id="glyph-0-0">
<path d="M 0.683594 0 L 0.683594 -5.65625 L 2.597656 -5.65625 C 3.039062 -5.65625 3.402344 -5.578125 3.6875 -5.417969 C 3.96875 -5.257812 4.179688 -5.042969 4.3125 -4.773438 C 4.449219 -4.503906 4.519531 -4.199219 4.519531 -3.867188 C 4.519531 -3.535156 4.449219 -3.230469 4.316406 -2.957031 C 4.179688 -2.683594 3.972656 -2.46875 3.691406 -2.308594 C 3.410156 -2.148438 3.046875 -2.066406 2.605469 -2.066406 L 1.238281 -2.066406 L 1.238281 -2.671875 L 2.585938 -2.671875 C 2.890625 -2.671875 3.132812 -2.726562 3.316406 -2.832031 C 3.5 -2.9375 3.636719 -3.078125 3.71875 -3.257812 C 3.800781 -3.4375 3.84375 -3.640625 3.84375 -3.867188 C 3.84375 -4.09375 3.800781 -4.296875 3.71875 -4.472656 C 3.636719 -4.652344 3.5 -4.792969 3.3125 -4.894531 C 3.128906 -4.996094 2.882812 -5.046875 2.574219 -5.046875 L 1.371094 -5.046875 L 1.371094 0 Z "/>
</g>
<g id="glyph-0-1">
<path d="M 0.683594 0 L 0.683594 -5.65625 L 2.597656 -5.65625 C 3.039062 -5.65625 3.402344 -5.582031 3.683594 -5.429688 C 3.96875 -5.28125 4.179688 -5.074219 4.3125 -4.8125 C 4.449219 -4.550781 4.519531 -4.253906 4.519531 -3.921875 C 4.519531 -3.589844 4.449219 -3.292969 4.3125 -3.035156 C 4.175781 -2.777344 3.96875 -2.574219 3.6875 -2.429688 C 3.40625 -2.28125 3.046875 -2.210938 2.605469 -2.210938 L 1.0625 -2.210938 L 1.0625 -2.828125 L 2.585938 -2.828125 C 2.886719 -2.828125 3.128906 -2.871094 3.316406 -2.960938 C 3.5 -3.050781 3.636719 -3.175781 3.71875 -3.335938 C 3.800781 -3.5 3.84375 -3.695312 3.84375 -3.921875 C 3.84375 -4.148438 3.800781 -4.347656 3.71875 -4.515625 C 3.632812 -4.683594 3.496094 -4.816406 3.3125 -4.910156 C 3.125 -5.003906 2.878906 -5.046875 2.574219 -5.046875 L 1.371094 -5.046875 L 1.371094 0 Z M 3.347656 -2.539062 L 4.738281 0 L 3.945312 0 L 2.574219 -2.539062 Z "/>
</g>
<g id="glyph-0-2">
<path d="M 5.457031 -2.828125 C 5.457031 -2.230469 5.351562 -1.714844 5.132812 -1.28125 C 4.917969 -0.847656 4.625 -0.511719 4.246094 -0.277344 C 3.871094 -0.0390625 3.441406 0.078125 2.960938 0.078125 C 2.476562 0.078125 2.050781 -0.0390625 1.671875 -0.277344 C 1.296875 -0.511719 1.003906 -0.847656 0.789062 -1.28125 C 0.574219 -1.714844 0.464844 -2.230469 0.464844 -2.828125 C 0.464844 -3.425781 0.570312 -3.941406 0.789062 -4.375 C 1.003906 -4.808594 1.296875 -5.144531 1.671875 -5.378906 C 2.046875 -5.617188 2.476562 -5.734375 2.960938 -5.734375 C 3.441406 -5.734375 3.871094 -5.617188 4.246094 -5.378906 C 4.621094 -5.144531 4.917969 -4.808594 5.132812 -4.375 C 5.347656 -3.941406 5.457031 -3.425781 5.457031 -2.828125 Z M 4.792969 -2.828125 C 4.792969 -3.316406 4.714844 -3.730469 4.550781 -4.066406 C 4.386719 -4.40625 4.167969 -4.660156 3.890625 -4.832031 C 3.613281 -5.007812 3.304688 -5.09375 2.960938 -5.09375 C 2.617188 -5.09375 2.308594 -5.007812 2.03125 -4.832031 C 1.753906 -4.660156 1.535156 -4.40625 1.371094 -4.066406 C 1.207031 -3.730469 1.125 -3.316406 1.125 -2.828125 C 1.125 -2.339844 1.207031 -1.925781 1.371094 -1.589844 C 1.535156 -1.25 1.753906 -0.996094 2.03125 -0.824219 C 2.308594 -0.648438 2.617188 -0.5625 2.960938 -0.5625 C 3.304688 -0.5625 3.613281 -0.648438 3.890625 -0.824219 C 4.167969 -0.996094 4.386719 -1.25 4.550781 -1.589844 C 4.714844 -1.925781 4.792969 -2.339844 4.792969 -2.828125 Z "/>
</g>
<g id="glyph-0-3">
<path d="M 0.683594 0 L 0.683594 -5.65625 L 2.664062 -5.65625 C 3.058594 -5.65625 3.382812 -5.589844 3.636719 -5.453125 C 3.894531 -5.316406 4.082031 -5.136719 4.210938 -4.910156 C 4.335938 -4.683594 4.398438 -4.429688 4.398438 -4.152344 C 4.398438 -3.910156 4.355469 -3.710938 4.269531 -3.550781 C 4.183594 -3.394531 4.070312 -3.269531 3.929688 -3.175781 C 3.792969 -3.082031 3.640625 -3.015625 3.480469 -2.972656 L 3.480469 -2.917969 C 3.652344 -2.90625 3.828125 -2.84375 4 -2.734375 C 4.175781 -2.625 4.324219 -2.464844 4.441406 -2.257812 C 4.558594 -2.050781 4.617188 -1.800781 4.617188 -1.503906 C 4.617188 -1.21875 4.554688 -0.964844 4.425781 -0.738281 C 4.296875 -0.511719 4.09375 -0.332031 3.8125 -0.199219 C 3.535156 -0.0664062 3.175781 0 2.730469 0 Z M 1.371094 -0.609375 L 2.730469 -0.609375 C 3.175781 -0.609375 3.496094 -0.695312 3.683594 -0.867188 C 3.871094 -1.042969 3.964844 -1.253906 3.964844 -1.503906 C 3.964844 -1.695312 3.917969 -1.871094 3.820312 -2.035156 C 3.722656 -2.199219 3.582031 -2.328125 3.402344 -2.425781 C 3.222656 -2.523438 3.007812 -2.574219 2.761719 -2.574219 L 1.371094 -2.574219 Z M 1.371094 -3.171875 L 2.640625 -3.171875 C 2.847656 -3.171875 3.03125 -3.210938 3.199219 -3.292969 C 3.367188 -3.375 3.5 -3.488281 3.597656 -3.632812 C 3.695312 -3.78125 3.746094 -3.953125 3.746094 -4.152344 C 3.746094 -4.402344 3.660156 -4.613281 3.484375 -4.789062 C 3.3125 -4.960938 3.039062 -5.046875 2.664062 -5.046875 L 1.371094 -5.046875 Z "/>
</g>
<g id="glyph-0-4">
<path d="M 0.683594 0 L 0.683594 -5.65625 L 1.371094 -5.65625 L 1.371094 -0.609375 L 4 -0.609375 L 4 0 Z "/>
</g>
<g id="glyph-0-5">
<path d="M 0.683594 0 L 0.683594 -5.65625 L 4.097656 -5.65625 L 4.097656 -5.046875 L 1.371094 -5.046875 L 1.371094 -3.136719 L 3.921875 -3.136719 L 3.921875 -2.53125 L 1.371094 -2.53125 L 1.371094 -0.609375 L 4.144531 -0.609375 L 4.144531 0 Z "/>
</g>
<g id="glyph-0-6">
<path d="M 0.683594 -5.65625 L 1.503906 -5.65625 L 3.425781 -0.960938 L 3.492188 -0.960938 L 5.414062 -5.65625 L 6.230469 -5.65625 L 6.230469 0 L 5.589844 0 L 5.589844 -4.296875 L 5.535156 -4.296875 L 3.765625 0 L 3.148438 0 L 1.382812 -4.296875 L 1.324219 -4.296875 L 1.324219 0 L 0.683594 0 Z "/>
</g>
<g id="glyph-0-7">
<rect x="0" y="0" width="0" height="0" mask="url(#mask-0)"/>
</g>
<g id="glyph-0-8">
<path d="M 3.777344 -4.242188 C 3.746094 -4.523438 3.609375 -4.738281 3.375 -4.894531 C 3.140625 -5.046875 2.851562 -5.125 2.507812 -5.125 C 2.257812 -5.125 2.039062 -5.085938 1.851562 -5.003906 C 1.664062 -4.921875 1.519531 -4.8125 1.414062 -4.671875 C 1.3125 -4.527344 1.257812 -4.367188 1.257812 -4.1875 C 1.257812 -4.035156 1.296875 -3.90625 1.367188 -3.800781 C 1.441406 -3.691406 1.535156 -3.601562 1.648438 -3.53125 C 1.761719 -3.460938 1.882812 -3.402344 2.007812 -3.355469 C 2.132812 -3.3125 2.25 -3.277344 2.351562 -3.246094 L 2.925781 -3.09375 C 3.074219 -3.054688 3.238281 -3 3.421875 -2.933594 C 3.601562 -2.863281 3.777344 -2.773438 3.941406 -2.65625 C 4.109375 -2.539062 4.246094 -2.390625 4.355469 -2.207031 C 4.464844 -2.023438 4.519531 -1.800781 4.519531 -1.535156 C 4.519531 -1.230469 4.4375 -0.953125 4.28125 -0.707031 C 4.121094 -0.460938 3.886719 -0.265625 3.582031 -0.117188 C 3.277344 0.0273438 2.910156 0.0976562 2.476562 0.0976562 C 2.070312 0.0976562 1.71875 0.0351562 1.421875 -0.0976562 C 1.128906 -0.226562 0.894531 -0.410156 0.726562 -0.644531 C 0.558594 -0.878906 0.464844 -1.148438 0.441406 -1.457031 L 1.148438 -1.457031 C 1.167969 -1.246094 1.238281 -1.070312 1.367188 -0.929688 C 1.492188 -0.789062 1.652344 -0.6875 1.847656 -0.621094 C 2.039062 -0.554688 2.25 -0.519531 2.476562 -0.519531 C 2.738281 -0.519531 2.972656 -0.5625 3.179688 -0.648438 C 3.386719 -0.734375 3.550781 -0.851562 3.671875 -1.007812 C 3.792969 -1.160156 3.855469 -1.339844 3.855469 -1.546875 C 3.855469 -1.734375 3.804688 -1.886719 3.699219 -2.003906 C 3.59375 -2.121094 3.453125 -2.21875 3.285156 -2.292969 C 3.113281 -2.367188 2.925781 -2.429688 2.730469 -2.484375 L 2.03125 -2.683594 C 1.589844 -2.8125 1.242188 -2.992188 0.984375 -3.230469 C 0.726562 -3.464844 0.597656 -3.773438 0.597656 -4.152344 C 0.597656 -4.46875 0.683594 -4.746094 0.855469 -4.984375 C 1.027344 -5.21875 1.257812 -5.40625 1.550781 -5.535156 C 1.84375 -5.667969 2.167969 -5.734375 2.53125 -5.734375 C 2.894531 -5.734375 3.21875 -5.667969 3.503906 -5.539062 C 3.785156 -5.410156 4.011719 -5.230469 4.175781 -5.007812 C 4.34375 -4.78125 4.433594 -4.527344 4.441406 -4.242188 Z "/>
</g>
<g id="glyph-0-9">
<path d="M 0.375 -5.046875 L 0.375 -5.65625 L 4.617188 -5.65625 L 4.617188 -5.046875 L 2.839844 -5.046875 L 2.839844 0 L 2.152344 0 L 2.152344 -5.046875 Z "/>
</g>
<g id="glyph-0-10">
<path d="M 0.917969 0 L 0.199219 0 L 2.277344 -5.65625 L 2.984375 -5.65625 L 5.058594 0 L 4.339844 0 L 2.652344 -4.761719 L 2.605469 -4.761719 Z M 1.183594 -2.210938 L 4.078125 -2.210938 L 4.078125 -1.601562 L 1.183594 -1.601562 Z "/>
</g>
<g id="glyph-0-11">
<path d="M 5.171875 -5.65625 L 5.171875 0 L 4.507812 0 L 1.425781 -4.441406 L 1.371094 -4.441406 L 1.371094 0 L 0.683594 0 L 0.683594 -5.65625 L 1.347656 -5.65625 L 4.441406 -1.203125 L 4.496094 -1.203125 L 4.496094 -5.65625 Z "/>
</g>
</g>
<image id="source-12" x="0" y="0" width="0" height="0"/>
<mask id="mask-0">
<use xlink:href="#source-12"/>
</mask>
</defs>
<g fill="rgb(87.843137%, 87.843137%, 87.843137%)" fill-opacity="1">
<use xlink:href="#glyph-0-0" x="30" y="27.53418"/>
<use xlink:href="#glyph-0-1" x="35" y="27.53418"/>
<use xlink:href="#glyph-0-2" x="40" y="27.53418"/>
<use xlink:href="#glyph-0-3" x="46" y="27.53418"/>
<use xlink:href="#glyph-0-4" x="51" y="27.53418"/>
<use xlink:href="#glyph-0-5" x="55" y="27.53418"/>
<use xlink:href="#glyph-0-6" x="60" y="27.53418"/>
<use xlink:href="#glyph-0-7" x="67" y="27.53418"/>
<use xlink:href="#glyph-0-8" x="69" y="27.53418"/>
<use xlink:href="#glyph-0-9" x="74" y="27.53418"/>
<use xlink:href="#glyph-0-10" x="78" y="27.53418"/>
<use xlink:href="#glyph-0-9" x="83" y="27.53418"/>
<use xlink:href="#glyph-0-5" x="88" y="27.53418"/>
<use xlink:href="#glyph-0-6" x="93" y="27.53418"/>
<use xlink:href="#glyph-0-5" x="100" y="27.53418"/>
<use xlink:href="#glyph-0-11" x="105" y="27.53418"/>
<use xlink:href="#glyph-0-9" x="111" y="27.53418"/>
</g>
</svg>
