<?xml version="1.0" encoding="UTF-8"?>
<svg xmlns="http://www.w3.org/2000/svg" xmlns:xlink="http://www.w3.org/1999/xlink" width="1920" height="1080" viewBox="0 0 1920 1080">
<defs>
<g>
<g id="glyph-0-0">
<path d="M 0.273438 0 L 0.273438 -0.230469 L 1.136719 -1.179688 C 1.238281 -1.289062 1.324219 -1.386719 1.390625 -1.46875 C 1.457031 -1.550781 1.503906 -1.628906 1.535156 -1.703125 C 1.566406 -1.777344 1.585938 -1.851562 1.585938 -1.933594 C 1.585938 -2.027344 1.5625 -2.105469 1.519531 -2.171875 C 1.476562 -2.242188 1.414062 -2.292969 1.339844 -2.328125 C 1.261719 -2.367188 1.175781 -2.382812 1.082031 -2.382812 C 0.980469 -2.382812 0.894531 -2.363281 0.820312 -2.324219 C 0.746094 -2.28125 0.6875 -2.222656 0.644531 -2.148438 C 0.605469 -2.074219 0.585938 -1.988281 0.585938 -1.886719 L 0.28125 -1.886719 C 0.28125 -2.039062 0.316406 -2.175781 0.386719 -2.292969 C 0.457031 -2.410156 0.554688 -2.5 0.679688 -2.5625 C 0.800781 -2.628906 0.9375 -2.660156 1.09375 -2.660156 C 1.246094 -2.660156 1.382812 -2.628906 1.5 -2.5625 C 1.621094 -2.5 1.714844 -2.410156 1.78125 -2.300781 C 1.847656 -2.191406 1.882812 -2.070312 1.882812 -1.933594 C 1.882812 -1.835938 1.863281 -1.742188 1.832031 -1.652344 C 1.796875 -1.558594 1.734375 -1.457031 1.652344 -1.34375 C 1.566406 -1.230469 1.449219 -1.09375 1.296875 -0.933594 L 0.707031 -0.300781 L 0.707031 -0.28125 L 1.929688 -0.28125 L 1.929688 0 Z "/>
</g>
</g>
</defs>
<g fill="rgb(25.882353%, 25.882353%, 25.882353%)" fill-opacity="1">
<use xlink:href="#glyph-0-0" x="30" y="23.49707"/>
</g>
</svg>
