<?xml version="1.0" encoding="UTF-8"?>
<svg xmlns="http://www.w3.org/2000/svg" xmlns:xlink="http://www.w3.org/1999/xlink" width="1920" height="1080" viewBox="0 0 1920 1080">
<defs>
<g>
<g id="glyph-0-0">
<path d="M 0.6875 -0.226562 L 2.4375 -0.226562 L 2.4375 -0.316406 C 2.4375 -0.371094 2.445312 -0.410156 2.46875 -0.433594 C 2.492188 -0.457031 2.519531 -0.46875 2.550781 -0.46875 C 2.585938 -0.46875 2.613281 -0.457031 2.632812 -0.433594 C 2.65625 -0.410156 2.667969 -0.371094 2.667969 -0.316406 L 2.667969 0 L 0.464844 0 L 0.464844 -0.335938 C 0.925781 -0.753906 1.378906 -1.175781 1.816406 -1.605469 C 2.019531 -1.804688 2.160156 -1.953125 2.234375 -2.046875 C 2.3125 -2.140625 2.363281 -2.226562 2.390625 -2.296875 C 2.417969 -2.367188 2.433594 -2.441406 2.433594 -2.511719 C 2.433594 -2.707031 2.355469 -2.878906 2.199219 -3.03125 C 2.039062 -3.179688 1.851562 -3.253906 1.628906 -3.253906 C 1.429688 -3.253906 1.253906 -3.199219 1.097656 -3.085938 C 0.945312 -2.972656 0.84375 -2.828125 0.800781 -2.660156 C 0.789062 -2.617188 0.777344 -2.589844 0.757812 -2.578125 C 0.738281 -2.558594 0.710938 -2.550781 0.683594 -2.550781 C 0.652344 -2.550781 0.628906 -2.558594 0.605469 -2.582031 C 0.585938 -2.601562 0.574219 -2.625 0.574219 -2.65625 C 0.574219 -2.742188 0.621094 -2.859375 0.71875 -3.007812 C 0.8125 -3.15625 0.945312 -3.273438 1.109375 -3.359375 C 1.277344 -3.445312 1.449219 -3.484375 1.625 -3.484375 C 1.910156 -3.484375 2.152344 -3.386719 2.355469 -3.191406 C 2.5625 -2.992188 2.664062 -2.769531 2.664062 -2.519531 C 2.664062 -2.414062 2.648438 -2.320312 2.613281 -2.230469 C 2.578125 -2.144531 2.519531 -2.046875 2.4375 -1.945312 C 2.355469 -1.839844 2.207031 -1.683594 1.992188 -1.472656 C 1.457031 -0.945312 1.023438 -0.535156 0.6875 -0.246094 Z "/>
</g>
</g>
</defs>
<g fill="rgb(87.843137%, 87.843137%, 87.843137%)" fill-opacity="1">
<use xlink:href="#glyph-0-0" x="30" y="24.625"/>
</g>
</svg>
